<?xml version="1.0" encoding="UTF-8"?>
<svg width="100" height="100" viewBox="0 0 100 100" fill="none" xmlns="http://www.w3.org/2000/svg">
  <path d="M0 0H100V100H0V0Z" fill="url(#paint0_radial)" fill-opacity="0.1"/>
  <circle cx="0" cy="0" r="1" fill="#818CF8" fill-opacity="0.2"/>
  <circle cx="25" cy="0" r="1" fill="#818CF8" fill-opacity="0.2"/>
  <circle cx="50" cy="0" r="1" fill="#818CF8" fill-opacity="0.2"/>
  <circle cx="75" cy="0" r="1" fill="#818CF8" fill-opacity="0.2"/>
  <circle cx="100" cy="0" r="1" fill="#818CF8" fill-opacity="0.2"/>
  <circle cx="0" cy="25" r="1" fill="#818CF8" fill-opacity="0.2"/>
  <circle cx="25" cy="25" r="1" fill="#818CF8" fill-opacity="0.2"/>
  <circle cx="50" cy="25" r="1" fill="#818CF8" fill-opacity="0.2"/>
  <circle cx="75" cy="25" r="1" fill="#818CF8" fill-opacity="0.2"/>
  <circle cx="100" cy="25" r="1" fill="#818CF8" fill-opacity="0.2"/>
  <circle cx="0" cy="50" r="1" fill="#818CF8" fill-opacity="0.2"/>
  <circle cx="25" cy="50" r="1" fill="#818CF8" fill-opacity="0.2"/>
  <circle cx="50" cy="50" r="1" fill="#818CF8" fill-opacity="0.2"/>
  <circle cx="75" cy="50" r="1" fill="#818CF8" fill-opacity="0.2"/>
  <circle cx="100" cy="50" r="1" fill="#818CF8" fill-opacity="0.2"/>
  <circle cx="0" cy="75" r="1" fill="#818CF8" fill-opacity="0.2"/>
  <circle cx="25" cy="75" r="1" fill="#818CF8" fill-opacity="0.2"/>
  <circle cx="50" cy="75" r="1" fill="#818CF8" fill-opacity="0.2"/>
  <circle cx="75" cy="75" r="1" fill="#818CF8" fill-opacity="0.2"/>
  <circle cx="100" cy="75" r="1" fill="#818CF8" fill-opacity="0.2"/>
  <circle cx="0" cy="100" r="1" fill="#818CF8" fill-opacity="0.2"/>
  <circle cx="25" cy="100" r="1" fill="#818CF8" fill-opacity="0.2"/>
  <circle cx="50" cy="100" r="1" fill="#818CF8" fill-opacity="0.2"/>
  <circle cx="75" cy="100" r="1" fill="#818CF8" fill-opacity="0.2"/>
  <circle cx="100" cy="100" r="1" fill="#818CF8" fill-opacity="0.2"/>
  <defs>
    <radialGradient id="paint0_radial" cx="0" cy="0" r="1" gradientUnits="userSpaceOnUse" gradientTransform="translate(50 50) rotate(90) scale(50)">
      <stop stop-color="#818CF8"/>
      <stop offset="1" stop-color="#818CF8" stop-opacity="0"/>
    </radialGradient>
  </defs>
</svg>
